<svg width="600" height="720" viewBox="0 0 600 720" fill="none" xmlns="http://www.w3.org/2000/svg">
<path d="M415.059 74.6695C477.517 101.825 541.785 139.843 574.372 195.965C606.959 252.086 608.769 327.217 575.277 380.623C541.785 434.934 473.896 466.616 430.447 525.453C386.998 584.29 368.894 670.283 329.971 679.335C291.048 687.482 231.306 618.688 170.658 586.101C110.01 553.514 48.4575 557.135 22.207 528.169C-4.04347 500.108 5.00842 439.46 14.9655 389.675C24.9226 340.795 35.7848 301.872 53.8886 269.285C72.8975 236.698 99.148 210.448 129.924 167.904C160.701 126.265 196.003 68.3332 243.978 48.419C291.953 28.5049 352.601 46.6086 415.059 74.6695Z" fill="url(#paint0_linear_133_846)"/>
<path d="M289.729 187.176L295.729 218.676C290.562 215.342 277.629 208.676 267.229 208.676C256.829 208.676 258.229 222.676 260.229 229.676C260.229 233.842 257.129 242.176 244.729 242.176C232.329 242.176 199.562 233.842 184.729 229.676V238.676C188.229 241.509 193.929 248.576 188.729 254.176C183.529 259.776 183.895 268.176 184.729 271.676L163.229 266.176L161.729 274.676C160.895 272.176 158.629 268.076 156.229 271.676C153.829 275.276 153.895 284.176 154.229 288.176H145.729L148.729 292.176L143.229 299.676C143.895 301.509 145.929 307.276 148.729 315.676C139.529 320.876 137.562 335.842 137.729 342.676C134.562 341.842 127.529 340.976 124.729 344.176C121.929 347.376 121.895 356.842 122.229 361.176L135.729 362.676V374.676L122.229 370.176C122.562 374.176 123.729 384.676 125.729 394.676C135.729 398.676 135.895 411.676 134.729 417.676C136.729 418.842 142.329 422.576 148.729 428.176C148.329 442.176 156.895 459.342 161.229 466.176H167.229L161.229 471.676L159.729 478.176L167.229 481.176L163.229 487.176C165.229 489.676 169.129 498.376 168.729 513.176C173.129 555.176 189.229 561.009 196.729 558.676L198.229 551.676C196.062 547.842 190.829 536.476 187.229 521.676C183.629 506.876 192.062 497.176 196.729 494.176L206.729 497.176L209.729 504.676C207.895 507.009 204.729 511.476 206.729 510.676C208.729 509.876 213.895 510.342 216.229 510.676V513.176L213.729 517.676L221.729 519.176C220.562 520.009 218.529 523.376 219.729 530.176C226.929 536.576 231.729 557.176 233.229 566.676L231.729 575.176L240.229 587.676L249.729 585.176C249.729 587.342 251.229 592.276 257.229 594.676C256.829 589.476 260.395 586.842 262.229 586.176L285.229 581.176L295.729 568.176H301.229L302.729 564.676C300.395 562.342 296.529 557.176 299.729 555.176C302.929 553.176 308.395 556.009 310.729 557.676L317.229 547.676L310.729 543.676C310.062 531.676 307.829 506.876 304.229 503.676C299.729 499.676 300.229 502.176 295.729 481.176C319.229 460.176 316.729 458.176 318.729 451.176C323.229 454.176 325.229 446.676 335.229 441.176C343.229 436.776 346.562 440.676 347.229 443.176V430.676L355.729 427.176L346.229 363.176L349.729 359.176V347.176C351.229 347.676 355.429 349.476 360.229 352.676C361.429 373.076 379.395 376.509 388.229 375.676V364.676C389.395 365.009 392.429 365.476 395.229 364.676C398.729 363.676 408.229 347.176 414.229 347.176C411.829 349.576 413.229 353.842 414.229 355.676H419.229C422.562 358.509 429.929 363.976 432.729 363.176C435.529 362.376 434.562 355.842 433.729 352.676C434.562 352.676 437.129 352.476 440.729 351.676C442.329 345.276 440.062 329.342 438.729 322.176H446.229C445.229 317.509 443.829 307.576 446.229 305.176C449.229 302.176 451.729 307.676 453.729 308.176C455.329 308.576 457.062 307.009 457.729 306.176L453.729 301.676C456.229 299.176 461.229 293.676 461.229 291.676C461.229 289.676 456.229 281.509 453.729 277.676L459.229 269.176C458.729 268.176 457.229 263.376 455.229 252.176C452.729 238.176 457.729 238.676 461.229 218.676C464.029 202.676 452.729 189.676 446.729 185.176C445.895 185.342 440.729 185.176 426.729 183.176C451.529 138.376 439.395 120.176 430.229 116.676L432.729 107.676L411.729 95.6757C410.729 96.1757 408.529 98.6757 407.729 104.676C406.929 110.676 410.062 125.842 411.729 132.676L402.729 128.676C406.062 131.509 409.929 138.376 398.729 143.176C387.529 147.976 365.062 146.176 355.229 144.676C358.229 149.509 363.229 159.976 359.229 163.176C360.029 157.176 354.562 153.676 351.729 152.676L340.229 159.176C341.895 161.176 345.329 168.376 345.729 181.176C346.229 197.176 339.729 202.676 337.729 207.676C335.729 212.676 342.229 218.676 333.229 220.676C322.746 212.486 320.267 201.503 320.354 194.59C319.145 195.643 316.705 196.497 312.229 196.676C302.229 197.076 293.062 190.509 289.729 187.176Z" fill="#3F3D56"/>
<path d="M320.354 194.59C320.267 201.503 322.746 212.486 333.229 220.676C342.229 218.676 335.729 212.676 337.729 207.676C339.729 202.676 346.229 197.176 345.729 181.176C345.329 168.376 341.895 161.176 340.229 159.176L351.729 152.676C354.562 153.676 360.029 157.176 359.229 163.176C363.229 159.976 358.229 149.509 355.229 144.676C365.062 146.176 387.529 147.976 398.729 143.176C409.929 138.376 406.062 131.509 402.729 128.676L411.729 132.676C410.062 125.842 406.929 110.676 407.729 104.676C408.529 98.6757 410.729 96.1757 411.729 95.6757L432.729 107.676L430.229 116.676C439.395 120.176 451.529 138.376 426.729 183.176C440.729 185.176 445.895 185.342 446.729 185.176C452.729 189.676 464.029 202.676 461.229 218.676C457.729 238.676 452.729 238.176 455.229 252.176C457.229 263.376 458.729 268.176 459.229 269.176L453.729 277.676C456.229 281.509 461.229 289.676 461.229 291.676C461.229 293.676 456.229 299.176 453.729 301.676L457.729 306.176C457.062 307.009 455.329 308.576 453.729 308.176C451.729 307.676 449.229 302.176 446.229 305.176C443.829 307.576 445.229 317.509 446.229 322.176H438.729C440.062 329.342 442.329 345.276 440.729 351.676C437.129 352.476 434.562 352.676 433.729 352.676C434.562 355.842 435.529 362.376 432.729 363.176C429.929 363.976 422.562 358.509 419.229 355.676H414.229C413.229 353.842 411.829 349.576 414.229 347.176C408.229 347.176 398.729 363.676 395.229 364.676C392.429 365.476 389.395 365.009 388.229 364.676V375.676C379.395 376.509 361.429 373.076 360.229 352.676C355.429 349.476 351.229 347.676 349.729 347.176V359.176L346.229 363.176L355.729 427.176L347.229 430.676V443.176C346.562 440.676 343.229 436.776 335.229 441.176C325.229 446.676 323.229 454.176 318.729 451.176C316.729 458.176 319.229 460.176 295.729 481.176C300.229 502.176 299.729 499.676 304.229 503.676C307.829 506.876 310.062 531.676 310.729 543.676L317.229 547.676L310.729 557.676C308.395 556.009 302.929 553.176 299.729 555.176C296.529 557.176 300.395 562.342 302.729 564.676L301.229 568.176H295.729L285.229 581.176L262.229 586.176C260.395 586.842 256.829 589.476 257.229 594.676C251.229 592.276 249.729 587.342 249.729 585.176L240.229 587.676L231.729 575.176L233.229 566.676C231.729 557.176 226.929 536.576 219.729 530.176C218.529 523.376 220.562 520.009 221.729 519.176L213.729 517.676L216.229 513.176V510.676C213.895 510.342 208.729 509.876 206.729 510.676C204.729 511.476 207.895 507.009 209.729 504.676L206.729 497.176L196.729 494.176C192.062 497.176 183.629 506.876 187.229 521.676C190.829 536.476 196.062 547.842 198.229 551.676L196.729 558.676C189.229 561.009 173.129 555.176 168.729 513.176C169.129 498.376 165.229 489.676 163.229 487.176L167.229 481.176L159.729 478.176L161.229 471.676L167.229 466.176H161.229C156.895 459.342 148.329 442.176 148.729 428.176C142.329 422.576 136.729 418.842 134.729 417.676C135.895 411.676 135.729 398.676 125.729 394.676C123.729 384.676 122.562 374.176 122.229 370.176L135.729 374.676V362.676L122.229 361.176C121.895 356.842 121.929 347.376 124.729 344.176C127.529 340.976 134.562 341.842 137.729 342.676C137.562 335.842 139.529 320.876 148.729 315.676C145.929 307.276 143.895 301.509 143.229 299.676L148.729 292.176L145.729 288.176H154.229C153.895 284.176 153.829 275.276 156.229 271.676C158.629 268.076 160.895 272.176 161.729 274.676L163.229 266.176L184.729 271.676C183.895 268.176 183.529 259.776 188.729 254.176C193.929 248.576 188.229 241.509 184.729 238.676V229.676C199.562 233.842 232.329 242.176 244.729 242.176C257.129 242.176 260.229 233.842 260.229 229.676C258.229 222.676 256.829 208.676 267.229 208.676C277.629 208.676 290.562 215.342 295.729 218.676L289.729 187.176C293.062 190.509 302.229 197.076 312.229 196.676C316.705 196.497 319.145 195.643 320.354 194.59ZM320.354 194.59C320.373 193.061 320.517 191.732 320.729 190.676C321.465 191.688 321.846 193.291 320.354 194.59Z" stroke="#3F3D56"/>
<circle cx="172.085" cy="349.676" r="10" fill="#212337"/>
<circle cx="404.085" cy="181.676" r="10" fill="#212337"/>
<circle cx="263.085" cy="529.676" r="10" fill="#212337"/>
<circle cx="292.085" cy="359.676" r="10" fill="#212337"/>
<circle cx="414.085" cy="291.676" r="10" fill="#212337"/>
<path d="M414.585 293.676C385.918 295.342 312.585 337.176 295.585 359.176C261.875 402.801 262.252 492.676 262.085 529.176" stroke="#212337"/>
<path d="M404.085 180.176C358.918 220.842 249.685 310.776 174.085 345.176" stroke="#212337"/>
<path d="M174.085 355.176C205.252 374.509 266.185 436.276 260.585 528.676" stroke="#212337"/>
<path d="M408.585 179.176C403.085 197.676 396.485 245.876 414.085 290.676" stroke="#212337"/>
<path d="M407.085 182.676C386.585 218.842 334.385 304.176 289.585 356.176C244.785 408.176 194.585 372.509 175.085 348.176" stroke="#212337"/>
<defs>
<linearGradient id="paint0_linear_133_846" x1="5" y1="680" x2="643.273" y2="86.9905" gradientUnits="userSpaceOnUse">
<stop stop-color="#F2F2F2"/>
<stop offset="1" stop-color="#F2F2F2"/>
</linearGradient>
</defs>
</svg>
